<?xml version="1.0" encoding="utf-8"?>
<!-- Generator: Adobe Illustrator 18.1.1, SVG Export Plug-In . SVG Version: 6.00 Build 0)  -->
<svg version="1.1" id="Слой_1" xmlns="http://www.w3.org/2000/svg" xmlns:xlink="http://www.w3.org/1999/xlink" x="0px" y="0px"
	 viewBox="0 0 64 64" enable-background="new 0 0 64 64" xml:space="preserve">
<path fill-rule="evenodd" clip-rule="evenodd" fill="#D25A27" d="M62.1,35.3c-1.5,14.1-12.7,25.3-26.9,26.9l4.4-6.4
	c7.6-2.5,13.6-8.4,16-16L62.1,35.3L62.1,35.3z M35.3,1.9c14.1,1.5,25.3,12.7,26.9,26.9l-6.4-4.4c-2.5-7.6-8.4-13.6-16-16L35.3,1.9
	L35.3,1.9z M24.3,8.3c-7.6,2.5-13.6,8.4-16,16l-6.4,4.4C3.4,14.6,14.6,3.4,28.7,1.9L24.3,8.3L24.3,8.3z M28.7,62.1
	C14.6,60.6,3.4,49.4,1.9,35.3l6.4,4.4c2.5,7.6,8.4,13.6,16,16L28.7,62.1z"/>
<path fill-rule="evenodd" clip-rule="evenodd" fill="#D25A27" d="M29.4,34.4c-5.5-1.2-9.6-6.1-9.6-11.9c0-5.8,4.1-10.7,9.6-11.9V7.3
	h-2.4L32,0l5.1,7.3h-2.4v3.2c5.5,1.2,9.6,6.1,9.6,11.9h-5.3c0-2.9-1.8-5.3-4.3-6.4v13.6c5.5,1.2,9.6,6.1,9.6,11.9
	s-4.1,10.7-9.6,11.9v3.2h2.4L32,64l-5.1-7.3h2.4v-3.2c-5.5-1.2-9.6-6.1-9.6-11.9h5.3c0,2.9,1.8,5.3,4.3,6.4V34.4L29.4,34.4z
	 M34.6,47.9c2.5-1,4.3-3.5,4.3-6.4s-1.8-5.3-4.3-6.4V47.9L34.6,47.9z M29.4,16.1c-2.5,1-4.3,3.5-4.3,6.4s1.8,5.3,4.3,6.4V16.1z"/>
<path fill-rule="evenodd" clip-rule="evenodd" fill="#D25A27" d="M7.3,34.6v2.4L0,32l7.3-5.1v2.4V34.6L7.3,34.6z M56.7,29.4v-2.4
	L64,32l-7.3,5.1v-2.4V29.4z"/>
</svg>
